<?xml version="1.0" encoding="utf-8"?>
<!-- Generator: Adobe Illustrator 24.0.1, SVG Export Plug-In . SVG Version: 6.00 Build 0)  -->
<svg version="1.1" id="Layer_1" xmlns="http://www.w3.org/2000/svg" xmlns:xlink="http://www.w3.org/1999/xlink" x="0px" y="0px"
	 viewBox="0 0 800 600" style="enable-background:new 0 0 800 600;" xml:space="preserve">
<style type="text/css">
	.st0{fill:none;}
	.st1{display:none;}
</style>
<rect x="241.57" y="166" class="st0" width="271.43" height="39.43"/>
<g class="st1">
</g>
<g>
	<polygon points="343.06,357.75 369.06,343.12 342.62,321.38 	"/>
	<polygon points="310.31,361.62 343.06,357.75 327.69,329 	"/>
	<polygon points="327.69,329 343.06,357.75 342.62,321.38 	"/>
	<polygon points="277.69,330.75 310.31,361.62 305.31,330.75 	"/>
	<polygon points="240.69,361.62 310.31,361.62 277.69,330.75 	"/>
	<polygon points="356.06,270.12 394.31,271.75 352.31,237.5 	"/>
	<polygon points="388.69,310.75 394.31,271.75 356.06,270.12 	"/>
	<polygon points="352.31,303.69 388.69,310.75 356.06,270.12 	"/>
	<polygon points="369.06,343.12 388.69,310.75 352.31,303.69 	"/>
	<polygon points="342.62,321.38 369.06,343.12 352.31,303.69 	"/>
	<polygon points="277.69,209.38 240.69,178.38 277.69,330.75 	"/>
	<polygon points="343.19,181.88 308.31,178.38 324.69,211.12 	"/>
	<polygon points="370.81,198.75 343.19,181.88 324.69,211.12 	"/>
	<polygon points="341.81,219.75 370.81,198.75 324.69,211.12 	"/>
	<polygon points="388.31,228.44 370.81,198.75 341.81,219.75 	"/>
	<polygon points="240.69,178.38 240.69,361.62 277.69,330.75 	"/>
	<polygon points="352.31,237.5 388.31,228.44 341.81,219.75 	"/>
	<polygon points="308.31,178.38 240.69,178.38 277.69,209.38 	"/>
	<polygon points="352.31,237.5 394.31,271.75 388.31,228.44 	"/>
	<polygon points="294.31,209.38 308.31,178.38 277.69,209.38 	"/>
	<polygon points="324.69,211.12 308.31,178.38 294.31,209.38 	"/>
	<polygon points="305.31,330.75 310.31,361.62 327.69,329 	"/>
	<polygon points="463.81,235 439.81,263.25 497.81,247.25 	"/>
	<polygon points="439.81,263.25 481.56,281.38 497.81,247.25 	"/>
	<polygon points="497.81,247.25 481.56,281.38 537.75,260.44 	"/>
	<polygon points="464.19,212.5 430.88,200.19 458.31,223.88 	"/>
	<polygon points="481.56,281.38 511.19,289.38 537.75,260.44 	"/>
	<polygon points="458.31,223.88 422.94,226.38 463.81,235 	"/>
	<polygon points="422.94,226.38 439.81,263.25 463.81,235 	"/>
	<polygon points="430.88,200.19 422.94,226.38 458.31,223.88 	"/>
	<polygon points="528.31,308.38 519.25,326.06 565.31,308.25 	"/>
	<polygon points="558,279.06 528.31,308.38 565.31,308.25 	"/>
	<polygon points="519.25,326.06 556.56,337.75 565.31,308.25 	"/>
	<polygon points="524.5,297.31 528.31,308.38 558,279.06 	"/>
	<polygon points="537.75,260.44 524.5,297.31 558,279.06 	"/>
	<polygon points="511.19,289.38 524.5,297.31 537.75,260.44 	"/>
	<polygon points="560.06,230.75 541.75,190.38 512.88,212.06 	"/>
	<polygon points="416.31,302 438.56,348.81 452.31,298.5 	"/>
	<polygon points="452.31,298.5 438.56,348.81 465.5,325.12 	"/>
	<polygon points="492.31,333.62 531.81,358.19 519.25,326.06 	"/>
	<polygon points="438.56,348.81 491.94,364.88 465.5,325.12 	"/>
	<polygon points="531.81,358.19 556.56,337.75 519.25,326.06 	"/>
	<polygon points="465.5,325.12 491.94,364.88 492.31,333.62 	"/>
	<polygon points="489.44,205.88 489.81,175.25 464.19,212.5 	"/>
	<polygon points="453.75,181.62 430.88,200.19 464.19,212.5 	"/>
	<polygon points="489.81,175.25 453.75,181.62 464.19,212.5 	"/>
	<polygon points="541.75,190.38 489.81,175.25 489.44,205.88 	"/>
	<polygon points="512.88,212.06 541.75,190.38 489.44,205.88 	"/>
	<polygon points="523.06,232.38 560.06,230.75 512.88,212.06 	"/>
	<polygon points="491.94,364.88 531.81,358.19 492.31,333.62 	"/>
</g>
</svg>
