<?xml version="1.0" encoding="utf-8"?>
<!-- Generator: Adobe Illustrator 24.0.1, SVG Export Plug-In . SVG Version: 6.00 Build 0)  -->
<svg version="1.1" id="Layer_1" xmlns="http://www.w3.org/2000/svg" xmlns:xlink="http://www.w3.org/1999/xlink" x="0px" y="0px"
	 viewBox="0 0 800 600" style="enable-background:new 0 0 800 600;" xml:space="preserve">
<style type="text/css">
	.st0{fill:none;}
</style>
<rect x="241.57" y="166" class="st0" width="271.43" height="39.43"/>
<g>
	<polygon points="108.11,289.26 69.26,289.26 108.11,305.01 	"/>
	<polygon points="114.26,267.24 114.26,251.5 69.26,267.24 	"/>
	<polygon points="108.11,305.01 69.26,289.26 69.26,305.01 	"/>
	<polygon points="69.26,344.55 69.26,289.26 50.47,344.55 	"/>
	<polygon points="50.47,344.55 69.26,289.26 50.47,251.5 	"/>
	<polygon points="69.26,267.24 114.26,251.5 50.47,251.5 	"/>
	<polygon points="69.26,289.26 69.26,267.24 50.47,251.5 	"/>
	<polygon points="129.81,251.5 129.81,344.55 148.6,290.85 	"/>
	<polygon points="152.41,305.71 161.87,306.75 162.5,290.85 	"/>
	<polygon points="148.6,290.85 152.41,305.71 162.5,290.85 	"/>
	<polygon points="148.6,305.71 152.41,305.71 148.6,290.85 	"/>
	<polygon points="129.81,344.55 148.6,344.55 148.6,290.85 	"/>
	<polygon points="162.5,290.85 161.87,306.75 179.39,289.71 	"/>
	<polygon points="179.39,289.71 161.87,306.75 181.36,303.48 	"/>
	<polygon points="191.01,344.55 213.48,344.55 202.11,326.4 	"/>
	<polygon points="191.42,311.29 177.42,324.3 202.11,326.4 	"/>
	<polygon points="177.42,324.3 191.01,344.55 202.11,326.4 	"/>
	<polygon points="161.87,306.75 167.52,310.62 191.42,311.29 	"/>
	<polygon points="167.52,310.62 177.42,324.3 191.42,311.29 	"/>
	<polygon points="186.56,278.79 205.92,277.58 184.06,271.21 	"/>
	<polygon points="181.36,303.48 199.77,294.88 179.39,289.71 	"/>
	<polygon points="205.92,277.58 201.86,262.92 184.06,271.21 	"/>
	<polygon points="184.06,271.21 201.86,262.92 176.98,267.56 	"/>
	<polygon points="184.66,285.77 199.77,294.88 186.56,278.79 	"/>
	<polygon points="179.39,289.71 199.77,294.88 184.66,285.77 	"/>
	<polygon points="181.36,303.48 161.87,306.75 191.42,311.29 	"/>
	<polygon points="199.77,294.88 205.92,277.58 186.56,278.79 	"/>
	<polygon points="169.36,251.5 129.81,251.5 148.6,267.24 	"/>
	<polygon points="201.86,262.92 191.04,254 176.98,267.56 	"/>
	<polygon points="163.27,267.24 169.36,251.5 148.6,267.24 	"/>
	<polygon points="148.6,267.24 129.81,251.5 148.6,290.85 	"/>
	<polygon points="191.04,254 169.36,251.5 163.27,267.24 	"/>
	<polygon points="176.98,267.56 191.04,254 163.27,267.24 	"/>
	<polygon points="224.08,274.73 219.82,298.6 239.18,297.96 	"/>
	<polygon points="219.82,298.6 232.08,333.48 246.48,321.92 	"/>
	<polygon points="232.08,333.48 265.08,346.14 246.48,321.92 	"/>
	<polygon points="239.18,297.96 219.82,298.6 246.48,321.92 	"/>
	<polygon points="297.84,333.41 310.09,298.15 283.46,321.99 	"/>
	<polygon points="290.66,297.71 310.09,298.15 297.74,262.67 	"/>
	<polygon points="265.02,330.08 297.84,333.41 283.46,321.99 	"/>
	<polygon points="246.48,321.92 265.08,346.14 265.02,330.08 	"/>
	<polygon points="265.08,346.14 297.84,333.41 265.02,330.08 	"/>
	<polygon points="290.66,297.71 297.74,262.67 283.65,273.84 	"/>
	<polygon points="297.74,262.67 264.83,249.91 283.65,273.84 	"/>
	<polygon points="283.65,273.84 264.83,249.91 265.02,265.97 	"/>
	<polygon points="246.29,273.93 224.08,274.73 239.18,297.96 	"/>
	<polygon points="283.46,321.99 310.09,298.15 290.66,297.71 	"/>
	<polygon points="232.74,261.97 224.08,274.73 246.29,273.93 	"/>
	<polygon points="244.77,253.59 232.74,261.97 246.29,273.93 	"/>
	<polygon points="265.02,265.97 264.83,249.91 246.29,273.93 	"/>
	<polygon points="264.83,249.91 244.77,253.59 246.29,273.93 	"/>
	<polygon points="379.91,344.55 398.76,344.55 381.31,313.64 	"/>
	<polygon points="398.76,344.55 398.76,251.5 381.31,313.64 	"/>
	<polygon points="343.22,251.5 379.91,344.55 381.31,313.64 	"/>
	<polygon points="381.31,313.64 398.76,251.5 381.31,251.5 	"/>
	<polygon points="342.4,344.55 342.4,283.87 324.94,344.55 	"/>
	<polygon points="324.94,344.55 342.4,283.87 324.94,251.5 	"/>
	<polygon points="324.94,251.5 342.4,283.87 343.22,251.5 	"/>
	<polygon points="342.4,283.87 379.91,344.55 343.22,251.5 	"/>
	<polygon points="485.92,267.24 485.92,251.5 458.37,267.24 	"/>
	<polygon points="439.58,267.24 485.92,251.5 411.97,251.5 	"/>
	<polygon points="458.37,344.55 458.37,267.24 439.58,344.55 	"/>
	<polygon points="411.97,267.24 439.58,267.24 411.97,251.5 	"/>
	<polygon points="439.58,344.55 458.37,267.24 439.58,267.24 	"/>
	<polygon points="458.37,267.24 485.92,251.5 439.58,267.24 	"/>
	<polygon points="516.83,287.87 498.04,251.5 516.83,328.87 	"/>
	<polygon points="498.04,251.5 498.04,344.55 516.83,328.87 	"/>
	<polygon points="568.82,344.55 568.82,328.87 516.83,328.87 	"/>
	<polygon points="563.55,303.55 516.83,287.87 516.83,303.55 	"/>
	<polygon points="498.04,344.55 568.82,344.55 516.83,328.87 	"/>
	<polygon points="563.55,287.87 516.83,287.87 563.55,303.55 	"/>
	<polygon points="567.04,251.5 498.04,251.5 567.04,267.24 	"/>
	<polygon points="567.04,267.24 498.04,251.5 516.83,267.24 	"/>
	<polygon points="516.83,267.24 498.04,251.5 516.83,287.87 	"/>
	<polygon points="639.91,344.55 658.76,344.55 641.31,313.64 	"/>
	<polygon points="658.76,344.55 658.76,251.5 641.31,313.64 	"/>
	<polygon points="641.31,313.64 658.76,251.5 641.31,251.5 	"/>
	<polygon points="603.22,251.5 639.91,344.55 641.31,313.64 	"/>
	<polygon points="602.4,344.55 602.4,283.87 584.94,344.55 	"/>
	<polygon points="584.94,344.55 602.4,283.87 584.94,251.5 	"/>
	<polygon points="602.4,283.87 639.91,344.55 603.22,251.5 	"/>
	<polygon points="584.94,251.5 602.4,283.87 603.22,251.5 	"/>
	<polygon points="713.93,344.55 730.56,342.58 722.75,327.99 	"/>
	<polygon points="711.39,328.87 713.93,344.55 722.75,327.99 	"/>
	<polygon points="697.36,328.87 713.93,344.55 711.39,328.87 	"/>
	<polygon points="678.57,344.55 713.93,344.55 697.36,328.87 	"/>
	<polygon points="697.36,267.24 678.57,344.55 697.36,328.87 	"/>
	<polygon points="730.33,324.11 753.73,318.72 735.25,315.13 	"/>
	<polygon points="735.25,315.13 753.73,318.72 756.58,298.91 	"/>
	<polygon points="743.76,335.16 753.73,318.72 730.33,324.11 	"/>
	<polygon points="722.75,327.99 730.56,342.58 730.33,324.11 	"/>
	<polygon points="730.56,342.58 743.76,335.16 730.33,324.11 	"/>
	<polygon points="678.57,251.5 678.57,344.55 697.36,267.24 	"/>
	<polygon points="735.25,281.52 753.54,276.92 729.92,272.51 	"/>
	<polygon points="737.16,298.09 753.54,276.92 735.25,281.52 	"/>
	<polygon points="753.54,276.92 744.65,261.84 729.92,272.51 	"/>
	<polygon points="756.58,298.91 753.54,276.92 737.16,298.09 	"/>
	<polygon points="735.25,315.13 756.58,298.91 737.16,298.09 	"/>
	<polygon points="712.91,251.5 678.57,251.5 697.36,267.24 	"/>
	<polygon points="721.23,268.13 712.91,251.5 697.36,267.24 	"/>
	<polygon points="730.62,253.27 712.91,251.5 721.23,268.13 	"/>
	<polygon points="744.65,261.84 730.62,253.27 721.23,268.13 	"/>
	<polygon points="729.92,272.51 744.65,261.84 721.23,268.13 	"/>
</g>
</svg>
