<?xml version="1.0" encoding="utf-8"?>
<!-- Generator: Adobe Illustrator 24.0.1, SVG Export Plug-In . SVG Version: 6.00 Build 0)  -->
<svg version="1.1" id="Layer_1" xmlns="http://www.w3.org/2000/svg" xmlns:xlink="http://www.w3.org/1999/xlink" x="0px" y="0px"
	 viewBox="0 0 800 600" style="enable-background:new 0 0 800 600;" xml:space="preserve">
<style type="text/css">
	.st0{fill:none;}
</style>
<rect x="241.57" y="166" class="st0" width="271.43" height="39.43"/>
<g>
	<polygon points="151.38,327.49 161.71,361.62 170.64,254.25 	"/>
	<polygon points="140.83,361.62 161.71,361.62 151.38,327.49 	"/>
	<polygon points="131.9,254.25 140.83,361.62 151.38,327.49 	"/>
	<polygon points="183.02,277.1 203.16,254.25 170.64,254.25 	"/>
	<polygon points="161.71,361.62 183.02,277.1 170.64,254.25 	"/>
	<polygon points="203.16,361.62 203.16,254.25 183.02,277.1 	"/>
	<polygon points="99.45,361.62 119.59,361.62 99.45,254.25 	"/>
	<polygon points="119.59,277.1 140.83,361.62 131.9,254.25 	"/>
	<polygon points="99.45,254.25 119.59,277.1 131.9,254.25 	"/>
	<polygon points="119.59,361.62 119.59,277.1 99.45,254.25 	"/>
	<polygon points="183.02,361.62 203.16,361.62 183.02,277.1 	"/>
	<polygon points="300.28,296.22 246.38,296.22 300.28,314.31 	"/>
	<polygon points="300.28,314.31 246.38,296.22 246.38,314.31 	"/>
	<polygon points="246.38,296.22 224.7,361.62 246.38,343.53 	"/>
	<polygon points="304.31,254.25 224.7,254.25 304.31,272.42 	"/>
	<polygon points="306.36,361.62 306.36,343.53 246.38,343.53 	"/>
	<polygon points="224.7,254.25 224.7,361.62 246.38,296.22 	"/>
	<polygon points="246.38,272.42 224.7,254.25 246.38,296.22 	"/>
	<polygon points="304.31,272.42 224.7,254.25 246.38,272.42 	"/>
	<polygon points="224.7,361.62 306.36,361.62 246.38,343.53 	"/>
	<polygon points="346.42,272.42 324.74,361.62 346.42,343.53 	"/>
	<polygon points="400.33,314.31 346.42,296.22 346.42,314.31 	"/>
	<polygon points="406.41,361.62 406.41,343.53 346.42,343.53 	"/>
	<polygon points="324.74,361.62 406.41,361.62 346.42,343.53 	"/>
	<polygon points="400.33,296.22 346.42,296.22 400.33,314.31 	"/>
	<polygon points="404.36,272.42 324.74,254.25 346.42,272.42 	"/>
	<polygon points="404.36,254.25 324.74,254.25 404.36,272.42 	"/>
	<polygon points="324.74,254.25 324.74,361.62 346.42,272.42 	"/>
	<polygon points="470.64,272.42 502.43,254.25 417.1,254.25 	"/>
	<polygon points="417.1,272.42 448.96,272.42 417.1,254.25 	"/>
	<polygon points="470.64,361.62 470.64,272.42 448.96,272.42 	"/>
	<polygon points="448.96,272.42 470.64,272.42 417.1,254.25 	"/>
	<polygon points="502.43,272.42 502.43,254.25 470.64,272.42 	"/>
	<polygon points="448.96,361.62 470.64,361.62 448.96,272.42 	"/>
	<polygon points="537.95,254.25 516.27,254.25 537.95,312.41 	"/>
	<polygon points="601.89,310.65 601.89,254.25 580.21,254.25 	"/>
	<polygon points="516.27,254.25 516.27,311.53 537.95,312.41 	"/>
	<polygon points="573.62,341.15 593.65,351.44 579.26,331.89 	"/>
	<polygon points="560.36,363.46 581.02,360.2 559.71,344.93 	"/>
	<polygon points="559.71,344.93 581.02,360.2 573.62,341.15 	"/>
	<polygon points="581.02,360.2 593.65,351.44 573.62,341.15 	"/>
	<polygon points="579.26,331.89 601.89,310.65 580.21,313.65 	"/>
	<polygon points="600.13,337.97 601.89,310.65 579.26,331.89 	"/>
	<polygon points="593.65,351.44 600.13,337.97 579.26,331.89 	"/>
	<polygon points="537.95,312.41 518.4,338.77 538.76,330.35 	"/>
	<polygon points="580.21,313.65 601.89,310.65 580.21,254.25 	"/>
	<polygon points="516.27,311.53 518.4,338.77 537.95,312.41 	"/>
	<polygon points="518.4,338.77 524.48,350.68 538.76,330.35 	"/>
	<polygon points="545.39,340.93 560.36,363.46 559.71,344.93 	"/>
	<polygon points="538.76,330.35 537.04,359.9 545.39,340.93 	"/>
	<polygon points="537.04,359.9 560.36,363.46 545.39,340.93 	"/>
	<polygon points="524.48,350.68 537.04,359.9 538.76,330.35 	"/>
	<polygon points="660.56,321.12 683.04,319.58 675.43,301.2 	"/>
	<polygon points="646.42,302.88 660.56,321.12 658.29,302.88 	"/>
	<polygon points="658.29,302.88 660.56,321.12 675.43,301.2 	"/>
	<polygon points="646.42,272.42 624.74,361.62 646.42,361.62 "/>
	<polygon points="683.04,319.58 694.29,314.49 682.2,295.93 	"/>
	<polygon points="675.43,301.2 683.04,319.58 682.2,295.93 	"/>
	<polygon points="682.2,295.93 703.41,303.91 707,287.28 	"/>
	<polygon points="694.29,314.49 703.41,303.91 682.2,295.93 	"/>
	<polygon points="624.74,254.25 624.74,361.62 646.42,272.42 	"/>
	<polygon points="646.42,321.12 660.56,321.12 646.42,302.88 	"/>
	<polygon points="700.77,266.37 685.32,255.86 681.21,277.91 	"/>
	<polygon points="684.66,287.58 707,287.28 681.21,277.91 	"/>
	<polygon points="659.53,254.25 624.74,254.25 646.42,272.42 	"/>
	<polygon points="682.2,295.93 707,287.28 684.66,287.58 	"/>
	<polygon points="707,287.28 700.77,266.37 681.21,277.91 	"/>
	<polygon points="672.5,273.15 659.53,254.25 656.9,272.42 	"/>
	<polygon points="656.9,272.42 659.53,254.25 646.42,272.42 	"/>
	<polygon points="685.32,255.86 659.53,254.25 672.5,273.15 	"/>
	<polygon points="681.21,277.91 685.32,255.86 672.5,273.15 	"/>
</g>
</svg>
